<svg xmlns="http://www.w3.org/2000/svg" xmlns:xlink="http://www.w3.org/1999/xlink" width="20" height="20" viewBox="0 0 20 20">
  <defs>
    <clipPath id="clip-path">
      <rect id="Rectangle_3537" data-name="Rectangle 3537" width="20" height="20" transform="translate(1580 35)" fill="#898989"/>
    </clipPath>
  </defs>
  <g id="Mask_Group_42" data-name="Mask Group 42" transform="translate(-1580 -35)" clip-path="url(#clip-path)">
    <g id="b" transform="translate(1580 35)">
      <g id="c">
        <g id="Group_89064" data-name="Group 89064">
          <path id="Path_451803" data-name="Path 451803" d="M20,10a9.828,9.828,0,0,1-.177,1.868H12.117v7.906a10.028,10.028,0,0,1-4.238,0V11.868H.177a9.925,9.925,0,0,1,0-3.736h7.7V.226a10.028,10.028,0,0,1,4.238,0V8.132h7.706A9.828,9.828,0,0,1,20,10Z" fill="#f30040"/>
          <path id="Path_451804" data-name="Path 451804" d="M7.264.411V6.328L2.638,3.23A10,10,0,0,1,7.162.411Z" fill="#14439e"/>
          <path id="Path_451805" data-name="Path 451805" d="M2.423,7.377H.351A8.484,8.484,0,0,1,.732,6.245Z" fill="#14439e"/>
          <path id="Path_451806" data-name="Path 451806" d="M6.657,7.377H4.132l-3-2a8.754,8.754,0,0,1,.683-1.125Z" fill="#f30040"/>
          <path id="Path_451807" data-name="Path 451807" d="M7.264,13.668v5.921h-.1a10.014,10.014,0,0,1-4.525-2.823Z" fill="#14439e"/>
          <path id="Path_451808" data-name="Path 451808" d="M2.423,12.623.732,13.755a8.484,8.484,0,0,1-.381-1.132Z" fill="#14439e"/>
          <path id="Path_451809" data-name="Path 451809" d="M6.657,12.623,1.819,15.747a8.8,8.8,0,0,1-.683-1.128l3-2Z" fill="#f30040"/>
          <path id="Path_451810" data-name="Path 451810" d="M17.362,3.23l-4.626,3.1V.411h.1A10,10,0,0,1,17.362,3.23Z" fill="#14439e"/>
          <path id="Path_451811" data-name="Path 451811" d="M19.649,7.377H17.581l1.691-1.132A9.049,9.049,0,0,1,19.649,7.377Z" fill="#14439e"/>
          <path id="Path_451812" data-name="Path 451812" d="M18.864,5.377l-3,2H13.347l4.834-3.125a8.754,8.754,0,0,1,.683,1.125Z" fill="#f30040"/>
          <path id="Path_451813" data-name="Path 451813" d="M17.362,16.766a10.014,10.014,0,0,1-4.525,2.823h-.1V13.668Z" fill="#14439e"/>
          <path id="Path_451814" data-name="Path 451814" d="M19.649,12.623a9.2,9.2,0,0,1-.377,1.128l-1.691-1.128Z" fill="#14439e"/>
          <path id="Path_451815" data-name="Path 451815" d="M18.864,14.619a8.8,8.8,0,0,1-.683,1.128l-4.834-3.125h2.521Z" fill="#f30040"/>
          <path id="Path_451816" data-name="Path 451816" d="M19.823,8.132H12.117V.226c.245.053.487.109.721.185h-.1V6.328l4.626-3.1a9.346,9.346,0,0,1,.819,1.023L13.347,7.377h2.521l3-2a8.255,8.255,0,0,1,.408.868L17.581,7.377h2.068C19.717,7.623,19.777,7.875,19.823,8.132Z" fill="#fff"/>
          <path id="Path_451817" data-name="Path 451817" d="M17.362,3.23l-4.626,3.1V.411h.1A10,10,0,0,1,17.362,3.23Z" fill="none"/>
          <path id="Path_451818" data-name="Path 451818" d="M18.864,5.377l-3,2H13.347l4.834-3.125a8.754,8.754,0,0,1,.683,1.125Z" fill="none"/>
          <path id="Path_451819" data-name="Path 451819" d="M19.649,7.377H17.581l1.691-1.132A9.049,9.049,0,0,1,19.649,7.377Z" fill="none"/>
          <path id="Path_451820" data-name="Path 451820" d="M7.879.226V8.132H.177c.045-.257.106-.509.174-.755H2.423L.732,6.245a7.534,7.534,0,0,1,.4-.868l3,2H6.657L1.819,4.253A9.346,9.346,0,0,1,2.638,3.23l4.626,3.1V.411h-.1A7.388,7.388,0,0,1,7.879.226Z" fill="#fff"/>
          <path id="Path_451821" data-name="Path 451821" d="M2.423,7.377H.351A8.484,8.484,0,0,1,.732,6.245Z" fill="none"/>
          <path id="Path_451822" data-name="Path 451822" d="M6.657,7.377H4.132l-3-2a8.754,8.754,0,0,1,.683-1.125Z" fill="none"/>
          <path id="Path_451823" data-name="Path 451823" d="M7.264.411V6.328L2.638,3.23A10,10,0,0,1,7.162.411Z" fill="none"/>
          <path id="Path_451824" data-name="Path 451824" d="M7.879,11.868v7.906a7.388,7.388,0,0,1-.717-.185h.1V13.668l-4.626,3.1a9.675,9.675,0,0,1-.819-1.019l4.838-3.125H4.132l-3,2a7.2,7.2,0,0,1-.4-.864l1.691-1.132H.351c-.068-.245-.128-.5-.174-.755Z" fill="#fff"/>
          <path id="Path_451825" data-name="Path 451825" d="M2.423,12.623.732,13.755a8.484,8.484,0,0,1-.381-1.132Z" fill="none"/>
          <path id="Path_451826" data-name="Path 451826" d="M6.657,12.623,1.819,15.747a8.8,8.8,0,0,1-.683-1.128l3-2Z" fill="none"/>
          <path id="Path_451827" data-name="Path 451827" d="M7.264,13.668v5.921h-.1a10.014,10.014,0,0,1-4.525-2.823Z" fill="none"/>
          <path id="Path_451828" data-name="Path 451828" d="M19.649,12.623H17.581l1.691,1.128a7.913,7.913,0,0,1-.408.868l-3-2H13.347l4.834,3.125a9.675,9.675,0,0,1-.819,1.019l-4.626-3.1v5.921h.1c-.234.075-.475.132-.721.185V11.868h7.706C19.777,12.125,19.717,12.377,19.649,12.623Z" fill="#fff"/>
          <g id="Group_89063" data-name="Group 89063">
            <path id="Path_451829" data-name="Path 451829" d="M17.362,16.766a10.014,10.014,0,0,1-4.525,2.823h-.1V13.668Z" fill="none"/>
            <path id="Path_451830" data-name="Path 451830" d="M18.864,14.619a8.8,8.8,0,0,1-.683,1.128l-4.834-3.125h2.521Z" fill="none"/>
            <path id="Path_451831" data-name="Path 451831" d="M19.649,12.623a9.2,9.2,0,0,1-.377,1.128l-1.691-1.128Z" fill="none"/>
            <path id="Path_451832" data-name="Path 451832" d="M20,10a9.828,9.828,0,0,1-.177,1.868H12.117v7.906a10.028,10.028,0,0,1-4.238,0V11.868H.177a9.925,9.925,0,0,1,0-3.736h7.7V.226a10.028,10.028,0,0,1,4.238,0V8.132h7.706A9.828,9.828,0,0,1,20,10Z" fill="none"/>
          </g>
        </g>
      </g>
    </g>
  </g>
</svg>
