<svg width="20" height="21" viewBox="0 0 20 21" fill="none" xmlns="http://www.w3.org/2000/svg">
<path d="M19.4444 20.5H0.555556C0.408213 20.5 0.266905 20.4415 0.162719 20.3373C0.0585317 20.2331 0 20.0918 0 19.9444V1.05556C0 0.908213 0.0585317 0.766905 0.162719 0.662719C0.266905 0.558532 0.408213 0.5 0.555556 0.5H19.4444C19.5918 0.5 19.7331 0.558532 19.8373 0.662719C19.9415 0.766905 20 0.908213 20 1.05556V19.9444C20 20.0918 19.9415 20.2331 19.8373 20.3373C19.7331 20.4415 19.5918 20.5 19.4444 20.5ZM1.11111 19.3889H18.8889V1.61111H1.11111V19.3889Z" fill="#121D77"/>
<path d="M2.77821 3.83333C3.08504 3.83333 3.33377 3.5846 3.33377 3.27778C3.33377 2.97095 3.08504 2.72222 2.77821 2.72222C2.47139 2.72222 2.22266 2.97095 2.22266 3.27778C2.22266 3.5846 2.47139 3.83333 2.77821 3.83333Z" fill="#121D77"/>
<path d="M4.99989 3.83333C5.30672 3.83333 5.55545 3.5846 5.55545 3.27778C5.55545 2.97095 5.30672 2.72222 4.99989 2.72222C4.69307 2.72222 4.44434 2.97095 4.44434 3.27778C4.44434 3.5846 4.69307 3.83333 4.99989 3.83333Z" fill="#121D77"/>
<path d="M7.22255 3.83333C7.52937 3.83333 7.7781 3.5846 7.7781 3.27778C7.7781 2.97095 7.52937 2.72222 7.22255 2.72222C6.91572 2.72222 6.66699 2.97095 6.66699 3.27778C6.66699 3.5846 6.91572 3.83333 7.22255 3.83333Z" fill="#121D77"/>
<path d="M8.33333 6.05556H0.555556C0.408213 6.05556 0.266905 5.99702 0.162719 5.89284C0.0585317 5.78865 0 5.64734 0 5.5C0 5.35266 0.0585317 5.21135 0.162719 5.10716C0.266905 5.00298 0.408213 4.94445 0.555556 4.94445H8.10556L10.1611 2.88333C10.213 2.83184 10.2746 2.79111 10.3423 2.76346C10.41 2.73581 10.4824 2.7218 10.5556 2.72222H19.4444C19.5918 2.72222 19.7331 2.78075 19.8373 2.88494C19.9415 2.98913 20 3.13044 20 3.27778C20 3.42512 19.9415 3.56643 19.8373 3.67062C19.7331 3.7748 19.5918 3.83333 19.4444 3.83333H10.7833L8.72778 5.89445C8.67587 5.94594 8.6143 5.98667 8.54662 6.01432C8.47893 6.04197 8.40645 6.05598 8.33333 6.05556Z" fill="#121D77"/>
</svg>
