<svg width="20" height="20" viewBox="0 0 20 20" fill="none" xmlns="http://www.w3.org/2000/svg">
<g clip-path="url(#clip0_115_1209)">
<path d="M6.25016 0.833332C5.56487 0.833332 5.00016 1.39804 5.00016 2.08333V7.5C5.00016 8.18529 5.56487 8.75 6.25016 8.75H8.3335C8.56361 8.75 8.75016 8.56345 8.75016 8.33333C8.75016 8.10321 8.56361 7.91667 8.3335 7.91667H6.25016C6.01212 7.91667 5.8335 7.73804 5.8335 7.5V2.08333C5.8335 1.84529 6.01212 1.66667 6.25016 1.66667H13.7502C13.9882 1.66667 14.1668 1.84529 14.1668 2.08333V7.5C14.1668 7.73804 13.9882 7.91667 13.7502 7.91667H10.0002C9.77005 7.91667 9.5835 8.10321 9.5835 8.33333V10.8333H4.16683C3.48141 10.8333 2.91683 11.3979 2.91683 12.0833V13.75H1.87516C1.30529 13.75 0.833496 14.2218 0.833496 14.7917V18.125C0.833496 18.6949 1.30529 19.1667 1.87516 19.1667H4.79183C5.3617 19.1667 5.8335 18.6949 5.8335 18.125V14.7917C5.8335 14.2218 5.3617 13.75 4.79183 13.75H3.75016V12.0833C3.75016 11.8483 3.93178 11.6667 4.16683 11.6667H9.5835V13.75H8.54183C7.97195 13.75 7.50016 14.2218 7.50016 14.7917V18.125C7.50016 18.6949 7.97195 19.1667 8.54183 19.1667H11.4585C12.0284 19.1667 12.5002 18.6949 12.5002 18.125V14.7917C12.5002 14.2218 12.0284 13.75 11.4585 13.75H10.4168V11.6667H15.8335C16.0686 11.6667 16.2502 11.8483 16.2502 12.0833V13.75H15.2085C14.6386 13.75 14.1668 14.2218 14.1668 14.7917V18.125C14.1668 18.6949 14.6386 19.1667 15.2085 19.1667H18.1252C18.695 19.1667 19.1668 18.6949 19.1668 18.125V14.7917C19.1668 14.2218 18.695 13.75 18.1252 13.75H17.0835V12.0833C17.0835 11.3979 16.5189 10.8333 15.8335 10.8333H10.4168V8.75H13.7502C14.4355 8.75 15.0002 8.18529 15.0002 7.5V2.08333C15.0002 1.39804 14.4355 0.833332 13.7502 0.833332H6.25016ZM1.87516 14.5833H4.79183C4.91445 14.5833 5.00016 14.669 5.00016 14.7917V18.125C5.00016 18.2476 4.91445 18.3333 4.79183 18.3333H1.87516C1.75254 18.3333 1.66683 18.2476 1.66683 18.125V14.7917C1.66683 14.669 1.75254 14.5833 1.87516 14.5833ZM8.54183 14.5833H11.4585C11.5811 14.5833 11.6668 14.669 11.6668 14.7917V18.125C11.6668 18.2476 11.5811 18.3333 11.4585 18.3333H8.54183C8.4192 18.3333 8.3335 18.2476 8.3335 18.125V14.7917C8.3335 14.669 8.4192 14.5833 8.54183 14.5833ZM15.2085 14.5833H18.1252C18.2478 14.5833 18.3335 14.669 18.3335 14.7917V18.125C18.3335 18.2476 18.2478 18.3333 18.1252 18.3333H15.2085C15.0859 18.3333 15.0002 18.2476 15.0002 18.125V14.7917C15.0002 14.669 15.0859 14.5833 15.2085 14.5833Z" fill="white"/>
<path d="M7.91667 3.33333C7.80616 3.33333 7.70019 3.37723 7.62204 3.45537C7.5439 3.53351 7.5 3.63949 7.5 3.75C7.5 3.86051 7.5439 3.96649 7.62204 4.04463C7.70019 4.12277 7.80616 4.16667 7.91667 4.16667H12.0833C12.1938 4.16667 12.2998 4.12277 12.378 4.04463C12.4561 3.96649 12.5 3.86051 12.5 3.75C12.5 3.63949 12.4561 3.53351 12.378 3.45537C12.2998 3.37723 12.1938 3.33333 12.0833 3.33333H7.91667Z" fill="white"/>
<path d="M7.91667 5.41666C7.80616 5.41666 7.70019 5.46056 7.62204 5.5387C7.5439 5.61684 7.5 5.72282 7.5 5.83333C7.5 5.94384 7.5439 6.04982 7.62204 6.12796C7.70019 6.2061 7.80616 6.25 7.91667 6.25H12.0833C12.1938 6.25 12.2998 6.2061 12.378 6.12796C12.4561 6.04982 12.5 5.94384 12.5 5.83333C12.5 5.72282 12.4561 5.61684 12.378 5.5387C12.2998 5.46056 12.1938 5.41666 12.0833 5.41666H7.91667Z" fill="white"/>
</g>
<defs>
<clipPath id="clip0_115_1209">
<rect width="20" height="20" fill="white"/>
</clipPath>
</defs>
</svg>
