<svg width="20" height="21" viewBox="0 0 20 21" fill="none" xmlns="http://www.w3.org/2000/svg">
<path d="M19.4444 20.5H0.555556C0.408213 20.5 0.266905 20.4415 0.162719 20.3373C0.0585317 20.2331 0 20.0918 0 19.9444V1.05556C0 0.908213 0.0585317 0.766905 0.162719 0.662719C0.266905 0.558532 0.408213 0.5 0.555556 0.5H19.4444C19.5918 0.5 19.7331 0.558532 19.8373 0.662719C19.9415 0.766905 20 0.908213 20 1.05556V19.9444C20 20.0918 19.9415 20.2331 19.8373 20.3373C19.7331 20.4415 19.5918 20.5 19.4444 20.5ZM1.11111 19.3889H18.8889V1.61111H1.11111V19.3889Z" fill="#121D77"/>
<path d="M2.77821 3.83333C3.08504 3.83333 3.33377 3.5846 3.33377 3.27778C3.33377 2.97095 3.08504 2.72222 2.77821 2.72222C2.47139 2.72222 2.22266 2.97095 2.22266 3.27778C2.22266 3.5846 2.47139 3.83333 2.77821 3.83333Z" fill="#121D77"/>
<path d="M4.99989 3.83333C5.30672 3.83333 5.55545 3.5846 5.55545 3.27778C5.55545 2.97095 5.30672 2.72222 4.99989 2.72222C4.69307 2.72222 4.44434 2.97095 4.44434 3.27778C4.44434 3.5846 4.69307 3.83333 4.99989 3.83333Z" fill="#121D77"/>
<path d="M7.22255 3.83333C7.52937 3.83333 7.7781 3.5846 7.7781 3.27778C7.7781 2.97095 7.52937 2.72222 7.22255 2.72222C6.91572 2.72222 6.66699 2.97095 6.66699 3.27778C6.66699 3.5846 6.91572 3.83333 7.22255 3.83333Z" fill="#121D77"/>
<path d="M8.33333 6.05556H0.555556C0.408213 6.05556 0.266905 5.99702 0.162719 5.89284C0.0585317 5.78865 0 5.64734 0 5.5C0 5.35266 0.0585317 5.21135 0.162719 5.10716C0.266905 5.00298 0.408213 4.94445 0.555556 4.94445H8.10556L10.1611 2.88333C10.213 2.83184 10.2746 2.79111 10.3423 2.76346C10.41 2.73581 10.4824 2.7218 10.5556 2.72222H19.4444C19.5918 2.72222 19.7331 2.78075 19.8373 2.88494C19.9415 2.98913 20 3.13044 20 3.27778C20 3.42512 19.9415 3.56643 19.8373 3.67062C19.7331 3.7748 19.5918 3.83333 19.4444 3.83333H10.7833L8.72778 5.89445C8.67587 5.94594 8.6143 5.98667 8.54662 6.01432C8.47893 6.04197 8.40645 6.05598 8.33333 6.05556ZM13.3333 11.0556H6.66667C6.51932 11.0556 6.37802 10.997 6.27383 10.8928C6.16964 10.7887 6.11111 10.6473 6.11111 10.5V8.27778C6.11111 8.13044 6.16964 7.98913 6.27383 7.88494C6.37802 7.78075 6.51932 7.72222 6.66667 7.72222H13.3333C13.4807 7.72222 13.622 7.78075 13.7262 7.88494C13.8304 7.98913 13.8889 8.13044 13.8889 8.27778V10.5C13.8889 10.6473 13.8304 10.7887 13.7262 10.8928C13.622 10.997 13.4807 11.0556 13.3333 11.0556ZM7.22222 9.94445H12.7778V8.83333H7.22222V9.94445ZM6.11111 17.7222H2.77778C2.63044 17.7222 2.48913 17.6637 2.38494 17.5595C2.28075 17.4553 2.22222 17.314 2.22222 17.1667V14.9444C2.22222 14.7971 2.28075 14.6558 2.38494 14.5516C2.48913 14.4474 2.63044 14.3889 2.77778 14.3889H6.11111C6.25845 14.3889 6.39976 14.4474 6.50395 14.5516C6.60814 14.6558 6.66667 14.7971 6.66667 14.9444V17.1667C6.66667 17.314 6.60814 17.4553 6.50395 17.5595C6.39976 17.6637 6.25845 17.7222 6.11111 17.7222ZM3.33333 16.6111H5.55556V15.5H3.33333V16.6111ZM11.6667 17.7222H8.33333C8.18599 17.7222 8.04468 17.6637 7.9405 17.5595C7.83631 17.4553 7.77778 17.314 7.77778 17.1667V14.9444C7.77778 14.7971 7.83631 14.6558 7.9405 14.5516C8.04468 14.4474 8.18599 14.3889 8.33333 14.3889H11.6667C11.814 14.3889 11.9553 14.4474 12.0595 14.5516C12.1637 14.6558 12.2222 14.7971 12.2222 14.9444V17.1667C12.2222 17.314 12.1637 17.4553 12.0595 17.5595C11.9553 17.6637 11.814 17.7222 11.6667 17.7222ZM8.88889 16.6111H11.1111V15.5H8.88889V16.6111ZM17.2222 17.7222H13.8889C13.7415 17.7222 13.6002 17.6637 13.4961 17.5595C13.3919 17.4553 13.3333 17.314 13.3333 17.1667V14.9444C13.3333 14.7971 13.3919 14.6558 13.4961 14.5516C13.6002 14.4474 13.7415 14.3889 13.8889 14.3889H17.2222C17.3696 14.3889 17.5109 14.4474 17.6151 14.5516C17.7192 14.6558 17.7778 14.7971 17.7778 14.9444V17.1667C17.7778 17.314 17.7192 17.4553 17.6151 17.5595C17.5109 17.6637 17.3696 17.7222 17.2222 17.7222ZM14.4444 16.6111H16.6667V15.5H14.4444V16.6111Z" fill="#121D77"/>
<path d="M15.5553 15.5C15.408 15.5 15.2667 15.4415 15.1625 15.3373C15.0583 15.2331 14.9998 15.0918 14.9998 14.9444V13.2778H4.99978V14.9444C4.99978 15.0918 4.94125 15.2331 4.83706 15.3373C4.73288 15.4415 4.59157 15.5 4.44423 15.5C4.29688 15.5 4.15558 15.4415 4.05139 15.3373C3.9472 15.2331 3.88867 15.0918 3.88867 14.9444V12.7222C3.88867 12.5749 3.9472 12.4336 4.05139 12.3294C4.15558 12.2252 4.29688 12.1667 4.44423 12.1667H15.5553C15.7027 12.1667 15.844 12.2252 15.9482 12.3294C16.0524 12.4336 16.1109 12.5749 16.1109 12.7222V14.9444C16.1109 15.0918 16.0524 15.2331 15.9482 15.3373C15.844 15.4415 15.7027 15.5 15.5553 15.5Z" fill="#121D77"/>
<path d="M9.99989 15.5C9.85255 15.5 9.71124 15.4415 9.60705 15.3373C9.50287 15.2331 9.44434 15.0918 9.44434 14.9444V10.5C9.44434 10.3527 9.50287 10.2113 9.60705 10.1072C9.71124 10.003 9.85255 9.94444 9.99989 9.94444C10.1472 9.94444 10.2885 10.003 10.3927 10.1072C10.4969 10.2113 10.5554 10.3527 10.5554 10.5V14.9444C10.5554 15.0918 10.4969 15.2331 10.3927 15.3373C10.2885 15.4415 10.1472 15.5 9.99989 15.5Z" fill="#121D77"/>
</svg>
