<svg width="20" height="20" viewBox="0 0 20 20" fill="none" xmlns="http://www.w3.org/2000/svg">
<path d="M12.4783 17.4125C10.9202 17.9369 9.23596 17.9535 7.66783 17.46C6.0997 16.9664 4.72856 15.9881 3.7517 14.6659C2.77485 13.3436 2.24262 11.7455 2.23162 10.1016C2.22061 8.45767 2.73139 6.85262 3.69046 5.5174C4.64953 4.18218 6.00745 3.18563 7.56883 2.67112C9.13021 2.15661 10.8146 2.15068 12.3795 2.65417C13.9445 3.15767 15.3094 4.14464 16.2778 5.47307C17.2463 6.8015 17.7684 8.40291 17.7689 10.0469C17.7438 10.677 17.6675 11.3041 17.5408 11.9219" stroke="white" stroke-width="0.9375"/>
<path d="M11.8313 15.9688C11.2724 16.6037 10.6597 17.1892 10 17.7188" stroke="white" stroke-width="0.9375"/>
<path d="M10 2.1875C12.097 4.01966 13.3946 6.59912 13.6156 9.375C13.661 9.8789 13.6704 10.3854 13.6437 10.8906" stroke="white" stroke-width="0.9375"/>
<path d="M9.9998 2.1875C8.86202 3.17921 7.94796 4.40137 7.31817 5.77302C6.68837 7.14466 6.35723 8.63447 6.34668 10.1437C6.34668 15.2062 8.62168 16.7063 9.99043 17.7188" stroke="white" stroke-width="0.9375"/>
<path d="M3.24072 6.21875H16.797" stroke="white" stroke-width="0.9375"/>
<path d="M10 2.18438V17.7188" stroke="white" stroke-width="0.9375"/>
<path d="M3.45312 14.2125H11.575" stroke="white" stroke-width="0.9375"/>
<path d="M2.23145 10.1437L17.7689 9.95312" stroke="white" stroke-width="0.9375"/>
<path d="M16.7405 17.8125L18.1249 16.425L15.6249 13.925L17.0468 13.0156C17.0675 13.0034 17.084 12.9851 17.0941 12.9633C17.1042 12.9415 17.1075 12.9171 17.1034 12.8933C17.0993 12.8696 17.0882 12.8477 17.0714 12.8305C17.0546 12.8132 17.0329 12.8015 17.0093 12.7969L12.2312 11.6781C12.2114 11.6741 12.191 11.675 12.1717 11.6808C12.1524 11.6866 12.1349 11.6971 12.1207 11.7114C12.1064 11.7256 12.0959 11.7432 12.0901 11.7624C12.0843 11.7817 12.0834 11.8021 12.0874 11.8219L13.1249 16.6906C13.1299 16.7143 13.1418 16.7359 13.1591 16.7528C13.1765 16.7697 13.1984 16.781 13.2222 16.7854C13.246 16.7897 13.2706 16.7869 13.2927 16.7773C13.3149 16.7676 13.3337 16.7516 13.3468 16.7313L14.2405 15.3125L16.7405 17.8125Z" stroke="white" stroke-width="0.9375"/>
</svg>
